<svg width="1591" height="122" viewBox="0 0 1591 122" fill="none" xmlns="http://www.w3.org/2000/svg">
<g filter="url(#filter0_n_47_36)">
<path d="M14.6121 34.3861C14.6121 29.1161 13.8888 25.2411 12.4421 22.7611C10.9955 20.1777 8.10213 18.8861 3.76213 18.8861H0.662129V15.7861H66.6921C75.4755 15.7861 79.8671 19.9194 79.8671 28.1861V39.8111H76.7671C76.7671 27.9277 70.3088 21.9861 57.3921 21.9861H28.5621V62.2861H70.4121V68.4861H28.5621V111.886H55.6871C62.8171 111.886 68.3971 110.594 72.4271 108.011C76.4571 105.428 79.6605 101.036 82.0371 94.8361L85.1371 95.6111L79.7121 110.336C77.8521 115.503 73.9771 118.086 68.0871 118.086H14.6121V34.3861ZM106.038 34.3861C106.038 29.1161 105.315 25.2411 103.868 22.7611C102.421 20.1777 99.5279 18.8861 95.1879 18.8861H92.0879V15.7861H106.038C109.861 15.7861 112.703 16.3027 114.563 17.3361C116.526 18.2661 117.921 20.0227 118.748 22.6061C119.575 25.1894 119.988 29.1161 119.988 34.3861V111.886H175.013V118.086H106.038V34.3861ZM189.593 34.3861C189.593 29.1161 188.869 25.2411 187.423 22.7611C185.976 20.1777 183.083 18.8861 178.743 18.8861H175.643V15.7861H216.253C236.299 15.7861 251.438 20.2294 261.668 29.1161C272.001 38.0027 277.168 50.4027 277.168 66.3161C277.168 76.5461 274.998 85.5877 270.658 93.4411C266.318 101.191 259.859 107.236 251.283 111.576C242.809 115.916 232.476 118.086 220.283 118.086H189.593V34.3861ZM219.818 112.661C227.464 112.661 234.336 110.801 240.433 107.081C246.633 103.258 251.489 97.9361 255.003 91.1161C258.516 84.1927 260.273 76.1327 260.273 66.9361C260.273 57.9461 258.516 49.9894 255.003 43.0661C251.593 36.1427 246.788 30.7694 240.588 26.9461C234.388 23.1227 227.361 21.2111 219.508 21.2111C214.548 21.2111 209.381 22.0377 204.008 23.6911V110.646C209.794 111.989 215.064 112.661 219.818 112.661ZM311.708 118.086C307.885 118.086 304.992 117.621 303.028 116.691C301.168 115.658 299.825 113.849 298.998 111.266C298.172 108.683 297.758 104.756 297.758 99.4861V15.7861H311.708V99.4861C311.708 104.756 312.432 108.683 313.878 111.266C315.325 113.746 318.218 114.986 322.558 114.986H325.658V118.086H311.708ZM355.908 118.086C352.084 118.086 349.191 117.621 347.228 116.691C345.368 115.658 344.024 113.849 343.198 111.266C342.371 108.683 341.958 104.756 341.958 99.4861V15.7861H355.908V99.4861C355.908 104.756 356.631 108.683 358.078 111.266C359.524 113.746 362.418 114.986 366.758 114.986H369.858V118.086H355.908ZM467.712 118.861C462.752 118.861 457.844 117.518 452.987 114.831C448.131 112.041 444.256 106.668 441.362 98.7111L437.487 88.6361H394.087L381.687 118.086H374.712L418.112 15.7861H422.762L456.862 98.7111C459.446 104.704 461.874 108.838 464.147 111.111C466.421 113.281 469.676 114.573 473.912 114.986V118.086C472.052 118.603 469.986 118.861 467.712 118.861ZM434.387 82.4361L415.787 37.4861L396.412 82.4361H434.387ZM554.321 119.636C548.844 119.636 544.039 118.034 539.906 114.831C535.876 111.524 531.381 105.634 526.421 97.1611L510.921 70.8111H500.071V118.086H486.121V34.3861C486.121 29.1161 485.398 25.2411 483.951 22.7611C482.504 20.1777 479.611 18.8861 475.271 18.8861H472.171V15.7861H512.471C522.288 15.7861 531.174 17.7494 539.131 21.6761C547.191 25.4994 551.221 32.8361 551.221 43.6861C551.221 57.4294 542.954 66.2127 526.421 70.0361L542.696 97.1611C546.519 103.568 549.929 108.063 552.926 110.646C556.026 113.126 559.591 114.573 563.621 114.986V118.086C562.691 118.499 561.348 118.861 559.591 119.171C557.938 119.481 556.181 119.636 554.321 119.636ZM511.696 65.3861C514.899 65.3861 518.361 64.6111 522.081 63.0611C525.904 61.5111 529.108 59.0827 531.691 55.7761C534.378 52.4694 535.721 48.4394 535.721 43.6861C535.721 38.6227 534.378 34.4377 531.691 31.1311C529.108 27.7211 525.904 25.2411 522.081 23.6911C518.361 22.0377 514.899 21.2111 511.696 21.2111C508.079 21.2111 504.204 21.7277 500.071 22.7611V63.8361C504.204 64.8694 508.079 65.3861 511.696 65.3861ZM617.054 34.3861C617.054 29.1161 616.33 25.2411 614.884 22.7611C613.437 20.1777 610.544 18.8861 606.204 18.8861H603.104V15.7861H643.404C654.667 15.7861 664.432 17.6461 672.699 21.3661C681.069 25.0861 685.254 32.2677 685.254 42.9111C685.254 47.7677 683.6 52.1594 680.294 56.0861C676.987 60.0127 671.924 63.1127 665.104 65.3861C674.61 66.9361 681.224 69.7777 684.944 73.9111C688.767 77.9411 690.679 83.3661 690.679 90.1861C690.679 100.623 686.545 107.908 678.279 112.041C670.115 116.071 660.04 118.086 648.054 118.086H617.054V34.3861ZM645.729 63.0611C649.965 63.0611 653.944 62.2861 657.664 60.7361C661.487 59.0827 664.587 56.7061 666.964 53.6061C669.34 50.4027 670.529 46.5794 670.529 42.1361C670.529 37.4861 669.134 33.6111 666.344 30.5111C663.554 27.3077 659.989 24.9827 655.649 23.5361C651.412 21.9861 647.072 21.2111 642.629 21.2111C639.012 21.2111 635.137 21.7277 631.004 22.7611V63.0611H645.729ZM645.729 112.661C655.132 112.661 662.365 110.801 667.429 107.081C672.595 103.361 675.179 97.9877 675.179 90.9611C675.179 83.9344 672.647 78.5611 667.584 74.8411C662.624 71.1211 655.339 69.2611 645.729 69.2611H631.004V110.491C635.964 111.938 640.872 112.661 645.729 112.661ZM713.474 34.3861C713.474 29.1161 712.751 25.2411 711.304 22.7611C709.858 20.1777 706.964 18.8861 702.624 18.8861H699.524V15.7861H765.554C774.338 15.7861 778.729 19.9194 778.729 28.1861V39.8111H775.629C775.629 27.9277 769.171 21.9861 756.254 21.9861H727.424V62.2861H769.274V68.4861H727.424V111.886H754.549C761.679 111.886 767.259 110.594 771.289 108.011C775.319 105.428 778.523 101.036 780.899 94.8361L783.999 95.6111L778.574 110.336C776.714 115.503 772.839 118.086 766.949 118.086H713.474V34.3861ZM884.725 119.636C879.869 119.636 874.805 118.344 869.535 115.761C864.265 113.074 858.22 108.166 851.4 101.036L818.85 66.9361V118.086H804.9V34.3861C804.9 29.1161 804.177 25.2411 802.73 22.7611C801.284 20.1777 798.39 18.8861 794.05 18.8861H790.95V15.7861H804.9C808.724 15.7861 811.565 16.3027 813.425 17.3361C815.389 18.2661 816.784 20.0227 817.61 22.6061C818.437 25.1894 818.85 29.1161 818.85 34.3861V64.6111L851.4 32.0611L854.5 28.8061C857.394 25.8094 859.822 23.4844 861.785 21.8311C863.749 20.0744 866.074 18.6277 868.76 17.4911C871.447 16.3544 874.444 15.7861 877.75 15.7861H885.5V19.6611C881.16 19.6611 877.389 20.4361 874.185 21.9861C870.982 23.4327 867.262 26.2744 863.025 30.5111L832.8 60.7361L868.45 97.9361C872.997 102.586 877.595 106.513 882.245 109.716C886.895 112.816 891.08 114.624 894.8 115.141V118.086C891.7 119.119 888.342 119.636 884.725 119.636ZM909.798 34.3861C909.798 29.1161 909.074 25.2411 907.628 22.7611C906.181 20.1777 903.288 18.8861 898.948 18.8861H895.848V15.7861H936.148C947.411 15.7861 957.176 17.6461 965.443 21.3661C973.813 25.0861 977.998 32.2677 977.998 42.9111C977.998 47.7677 976.344 52.1594 973.038 56.0861C969.731 60.0127 964.668 63.1127 957.848 65.3861C967.354 66.9361 973.968 69.7777 977.688 73.9111C981.511 77.9411 983.423 83.3661 983.423 90.1861C983.423 100.623 979.289 107.908 971.023 112.041C962.859 116.071 952.784 118.086 940.798 118.086H909.798V34.3861ZM938.473 63.0611C942.709 63.0611 946.688 62.2861 950.408 60.7361C954.231 59.0827 957.331 56.7061 959.708 53.6061C962.084 50.4027 963.273 46.5794 963.273 42.1361C963.273 37.4861 961.878 33.6111 959.088 30.5111C956.298 27.3077 952.733 24.9827 948.393 23.5361C944.156 21.9861 939.816 21.2111 935.373 21.2111C931.756 21.2111 927.881 21.7277 923.748 22.7611V63.0611H938.473ZM938.473 112.661C947.876 112.661 955.109 110.801 960.173 107.081C965.339 103.361 967.923 97.9877 967.923 90.9611C967.923 83.9344 965.391 78.5611 960.328 74.8411C955.368 71.1211 948.083 69.2611 938.473 69.2611H923.748V110.491C928.708 111.938 933.616 112.661 938.473 112.661ZM1044.97 121.186C1035.36 121.186 1026.89 118.809 1019.55 114.056C1012.32 109.303 1006.74 102.793 1002.81 94.5261C998.882 86.2594 996.919 77.0627 996.919 66.9361C996.919 56.8094 998.882 47.6127 1002.81 39.3461C1006.74 31.0794 1012.32 24.5694 1019.55 19.8161C1026.89 15.0627 1035.36 12.6861 1044.97 12.6861C1054.58 12.6861 1063 15.0627 1070.23 19.8161C1077.57 24.5694 1083.2 31.0794 1087.13 39.3461C1091.06 47.6127 1093.02 56.8094 1093.02 66.9361C1093.02 77.0627 1091.06 86.2594 1087.13 94.5261C1083.2 102.793 1077.57 109.303 1070.23 114.056C1063 118.809 1054.58 121.186 1044.97 121.186ZM1044.97 114.986C1051.69 114.986 1057.47 113.023 1062.33 109.096C1067.29 105.169 1071.06 99.6411 1073.64 92.5111C1076.23 85.2777 1077.52 76.7527 1077.52 66.9361C1077.52 57.1194 1076.23 48.6461 1073.64 41.5161C1071.06 34.2827 1067.29 28.7027 1062.33 24.7761C1057.47 20.8494 1051.69 18.8861 1044.97 18.8861C1038.25 18.8861 1032.41 20.8494 1027.45 24.7761C1022.6 28.7027 1018.88 34.2827 1016.29 41.5161C1013.71 48.6461 1012.42 57.1194 1012.42 66.9361C1012.42 76.7527 1013.71 85.2777 1016.29 92.5111C1018.88 99.6411 1022.6 105.169 1027.45 109.096C1032.41 113.023 1038.25 114.986 1044.97 114.986ZM1115.51 34.3861C1115.51 29.1161 1114.78 25.2411 1113.34 22.7611C1111.89 20.1777 1109 18.8861 1104.66 18.8861H1101.56V15.7861H1115.51C1119.33 15.7861 1122.17 16.3027 1124.03 17.3361C1125.99 18.2661 1127.39 20.0227 1128.22 22.6061C1129.04 25.1894 1129.46 29.1161 1129.46 34.3861V111.886H1184.48V118.086H1115.51V34.3861ZM1233.72 121.186C1224.11 121.186 1215.64 118.809 1208.3 114.056C1201.07 109.303 1195.49 102.793 1191.56 94.5261C1187.64 86.2594 1185.67 77.0627 1185.67 66.9361C1185.67 56.8094 1187.64 47.6127 1191.56 39.3461C1195.49 31.0794 1201.07 24.5694 1208.3 19.8161C1215.64 15.0627 1224.11 12.6861 1233.72 12.6861C1243.33 12.6861 1251.76 15.0627 1258.99 19.8161C1266.33 24.5694 1271.96 31.0794 1275.88 39.3461C1279.81 47.6127 1281.77 56.8094 1281.77 66.9361C1281.77 77.0627 1279.81 86.2594 1275.88 94.5261C1271.96 102.793 1266.33 109.303 1258.99 114.056C1251.76 118.809 1243.33 121.186 1233.72 121.186ZM1233.72 114.986C1240.44 114.986 1246.23 113.023 1251.08 109.096C1256.04 105.169 1259.82 99.6411 1262.4 92.5111C1264.98 85.2777 1266.27 76.7527 1266.27 66.9361C1266.27 57.1194 1264.98 48.6461 1262.4 41.5161C1259.82 34.2827 1256.04 28.7027 1251.08 24.7761C1246.23 20.8494 1240.44 18.8861 1233.72 18.8861C1227.01 18.8861 1221.17 20.8494 1216.21 24.7761C1211.35 28.7027 1207.63 34.2827 1205.05 41.5161C1202.47 48.6461 1201.17 57.1194 1201.17 66.9361C1201.17 76.7527 1202.47 85.2777 1205.05 92.5111C1207.63 99.6411 1211.35 105.169 1216.21 109.096C1221.17 113.023 1227.01 114.986 1233.72 114.986ZM1314.62 21.9861C1301.7 21.9861 1295.25 27.9277 1295.25 39.8111H1292.15V28.1861C1292.15 19.9194 1296.54 15.7861 1305.32 15.7861H1377.4V21.9861H1342.52V118.086H1328.57V21.9861H1314.62ZM1428.08 121.186C1418.47 121.186 1410 118.809 1402.66 114.056C1395.43 109.303 1389.85 102.793 1385.92 94.5261C1381.99 86.2594 1380.03 77.0627 1380.03 66.9361C1380.03 56.8094 1381.99 47.6127 1385.92 39.3461C1389.85 31.0794 1395.43 24.5694 1402.66 19.8161C1410 15.0627 1418.47 12.6861 1428.08 12.6861C1437.69 12.6861 1446.11 15.0627 1453.34 19.8161C1460.68 24.5694 1466.31 31.0794 1470.24 39.3461C1474.17 47.6127 1476.13 56.8094 1476.13 66.9361C1476.13 77.0627 1474.17 86.2594 1470.24 94.5261C1466.31 102.793 1460.68 109.303 1453.34 114.056C1446.11 118.809 1437.69 121.186 1428.08 121.186ZM1428.08 114.986C1434.8 114.986 1440.58 113.023 1445.44 109.096C1450.4 105.169 1454.17 99.6411 1456.75 92.5111C1459.34 85.2777 1460.63 76.7527 1460.63 66.9361C1460.63 57.1194 1459.34 48.6461 1456.75 41.5161C1454.17 34.2827 1450.4 28.7027 1445.44 24.7761C1440.58 20.8494 1434.8 18.8861 1428.08 18.8861C1421.36 18.8861 1415.52 20.8494 1410.56 24.7761C1405.71 28.7027 1401.99 34.2827 1399.4 41.5161C1396.82 48.6461 1395.53 57.1194 1395.53 66.9361C1395.53 76.7527 1396.82 85.2777 1399.4 92.5111C1401.99 99.6411 1405.71 105.169 1410.56 109.096C1415.52 113.023 1421.36 114.986 1428.08 114.986ZM1493.23 33.9211C1490.64 27.9277 1488.22 23.8461 1485.94 21.6761C1483.67 19.4027 1480.41 18.0594 1476.18 17.6461V14.5461C1476.69 14.5461 1477.47 14.4944 1478.5 14.3911C1479.43 14.2877 1480.41 14.2361 1481.45 14.2361C1486.61 14.2361 1491.57 15.5794 1496.33 18.2661C1501.08 20.8494 1505.11 26.0677 1508.42 33.9211L1534.92 96.3861L1544.07 75.1511C1548.41 65.1277 1556.73 45.3394 1569.02 15.7861H1576.46L1531.98 119.636H1529.19L1493.23 33.9211Z" fill="white"/>
</g>
<defs>
<filter id="filter0_n_47_36" x="0.66214" y="12.686" width="1575.8" height="108.5" filterUnits="userSpaceOnUse" color-interpolation-filters="sRGB">
<feFlood flood-opacity="0" result="BackgroundImageFix"/>
<feBlend mode="normal" in="SourceGraphic" in2="BackgroundImageFix" result="shape"/>
<feTurbulence type="fractalNoise" baseFrequency="2 2" stitchTiles="stitch" numOctaves="3" result="noise" seed="6749" />
<feColorMatrix in="noise" type="luminanceToAlpha" result="alphaNoise" />
<feComponentTransfer in="alphaNoise" result="coloredNoise1">
<feFuncA type="discrete" tableValues="1 1 1 1 1 1 1 1 1 1 1 1 1 1 1 1 1 1 1 1 1 1 1 1 1 1 1 1 1 1 1 1 1 1 1 1 1 1 1 1 1 1 1 1 1 1 1 1 1 1 1 0 0 0 0 0 0 0 0 0 0 0 0 0 0 0 0 0 0 0 0 0 0 0 0 0 0 0 0 0 0 0 0 0 0 0 0 0 0 0 0 0 0 0 0 0 0 0 0 0 "/>
</feComponentTransfer>
<feComposite operator="in" in2="shape" in="coloredNoise1" result="noise1Clipped" />
<feFlood flood-color="rgba(245, 209, 7, 1)" result="color1Flood" />
<feComposite operator="in" in2="noise1Clipped" in="color1Flood" result="color1" />
<feMerge result="effect1_noise_47_36">
<feMergeNode in="shape" />
<feMergeNode in="color1" />
</feMerge>
</filter>
</defs>
</svg>
